<svg width="200" height="200" viewBox="0 0 200 200" xmlns="http://www.w3.org/2000/svg">
  <!-- S -->
  <path d="M10 40 Q10 20 30 20 L50 20 Q70 20 70 40 Q70 50 50 50 L30 50 Q10 50 10 60 Q10 80 30 80 L50 80 Q70 80 70 100"
        stroke="#00D4AA" stroke-width="8" fill="none" stroke-linecap="round"/>

  <!-- B (modified 8) -->
  <path d="M80 20 L80 100 M80 20 Q100 20 100 40 Q100 50 80 50 M80 50 Q100 50 100 80 Q100 100 80 100"
        stroke="#1A1A2E" stroke-width="8" fill="none" stroke-linecap="round"/>

  <!-- 3 -->
  <path d="M110 20 L140 20 Q150 20 150 30 Q150 40 140 45 Q150 45 150 60 Q150 80 140 80 L110 80"
        stroke="#C4FF00" stroke-width="8" fill="none" stroke-linecap="round"/>

  <!-- 1 -->
  <path d="M160 20 L170 20 L170 100 M160 100 L180 100"
        stroke="#DC143C" stroke-width="8" fill="none" stroke-linecap="round"/>

  <!-- SCHEMA31 text -->
  <text x="10" y="140" font-family="Arial, sans-serif" font-size="32" font-weight="bold" fill="#1A1A2E">
    SCHEMA 31
  </text>
</svg>
